<svg xmlns="http://www.w3.org/2000/svg" xmlns:xlink="http://www.w3.org/1999/xlink" width="500" zoomAndPan="magnify" viewBox="0 0 375 374.999991" height="500" preserveAspectRatio="xMidYMid meet" version="1.0"><defs><g/><clipPath id="b9057b7121"><path d="M 134.222656 58 L 240.722656 58 L 240.722656 171.441406 L 134.222656 171.441406 Z M 134.222656 58 " clip-rule="nonzero"/></clipPath><clipPath id="0b119a9cb0"><path d="M 239.121094 163.628906 C 232.703125 158.097656 225.386719 153.578125 217.421875 150.320312 L 217.421875 127.675781 C 220.074219 127.28125 222.105469 125 222.105469 122.238281 C 222.105469 119.203125 219.648438 116.742188 216.609375 116.742188 C 213.574219 116.742188 211.113281 119.203125 211.113281 122.238281 C 211.113281 125 213.144531 127.28125 215.796875 127.675781 L 215.796875 149.675781 C 211.058594 147.859375 206.101562 146.484375 200.976562 145.601562 L 200.976562 74.792969 L 183.386719 58.011719 L 183.386719 144.5625 C 181.964844 144.632812 180.554688 144.742188 179.152344 144.886719 L 179.152344 99.554688 L 166.285156 108.1875 L 166.285156 147.324219 C 162.894531 148.265625 159.597656 149.425781 156.40625 150.789062 L 156.40625 141.476562 L 163.21875 141.476562 L 155.589844 116.742188 L 147.964844 141.476562 L 154.777344 141.476562 L 154.777344 151.503906 C 147.875 154.640625 141.5 158.738281 135.828125 163.628906 C 133.726562 165.441406 133.808594 168.726562 135.992188 170.4375 C 137.65625 171.738281 140 171.667969 141.601562 170.292969 C 153.917969 159.6875 169.949219 153.273438 187.472656 153.273438 C 205 153.273438 221.027344 159.6875 233.34375 170.292969 C 234.945312 171.667969 237.289062 171.738281 238.953125 170.4375 C 241.136719 168.726562 241.222656 165.441406 239.121094 163.628906 Z M 239.121094 163.628906 " clip-rule="nonzero"/></clipPath><clipPath id="3966155b03"><path d="M 239.121094 163.628906 C 232.703125 158.097656 225.386719 153.578125 217.421875 150.320312 L 217.421875 127.675781 C 220.074219 127.28125 222.105469 125 222.105469 122.238281 C 222.105469 119.203125 219.648438 116.742188 216.609375 116.742188 C 213.574219 116.742188 211.113281 119.203125 211.113281 122.238281 C 211.113281 125 213.144531 127.28125 215.796875 127.675781 L 215.796875 149.675781 C 211.058594 147.859375 206.101562 146.484375 200.976562 145.601562 L 200.976562 74.792969 L 183.386719 58.011719 L 183.386719 144.5625 C 181.964844 144.632812 180.554688 144.742188 179.152344 144.886719 L 179.152344 99.554688 L 166.285156 108.1875 L 166.285156 147.324219 C 162.894531 148.265625 159.597656 149.425781 156.40625 150.789062 L 156.40625 141.476562 L 163.21875 141.476562 L 155.589844 116.742188 L 147.964844 141.476562 L 154.777344 141.476562 L 154.777344 151.503906 C 147.875 154.640625 141.5 158.738281 135.828125 163.628906 C 133.726562 165.441406 133.808594 168.726562 135.992188 170.4375 C 137.65625 171.738281 140 171.667969 141.601562 170.292969 C 153.917969 159.6875 169.949219 153.273438 187.472656 153.273438 C 205 153.273438 221.027344 159.6875 233.34375 170.292969 C 234.945312 171.667969 237.289062 171.738281 238.953125 170.4375 C 241.136719 168.726562 241.222656 165.441406 239.121094 163.628906 " clip-rule="nonzero"/></clipPath><clipPath id="d419be7823"><path d="M 241.050781 53.75 L 129.222656 58.191406 L 133.894531 176 L 245.726562 171.558594 Z M 241.050781 53.75 " clip-rule="nonzero"/></clipPath><linearGradient x1="-0.911652" gradientTransform="matrix(3.25661, 82.106733, -82.082716, 3.257563, 186.04416, 130.924957)" y1="0" x2="0.519065" gradientUnits="userSpaceOnUse" y2="0" id="1978774727"><stop stop-opacity="1" stop-color="rgb(15.699768%, 66.699219%, 88.198853%)" offset="0"/><stop stop-opacity="1" stop-color="rgb(15.699768%, 66.699219%, 88.198853%)" offset="0.5"/><stop stop-opacity="1" stop-color="rgb(15.699768%, 66.699219%, 88.198853%)" offset="0.625"/><stop stop-opacity="1" stop-color="rgb(15.699768%, 66.699219%, 88.198853%)" offset="0.632812"/><stop stop-opacity="1" stop-color="rgb(15.602112%, 66.499329%, 88.101196%)" offset="0.636719"/><stop stop-opacity="1" stop-color="rgb(15.504456%, 66.299438%, 88.00354%)" offset="0.640625"/><stop stop-opacity="1" stop-color="rgb(15.284729%, 65.982056%, 87.814331%)" offset="0.644531"/><stop stop-opacity="1" stop-color="rgb(15.066528%, 65.666199%, 87.625122%)" offset="0.648438"/><stop stop-opacity="1" stop-color="rgb(14.855957%, 65.455627%, 87.361145%)" offset="0.652344"/><stop stop-opacity="1" stop-color="rgb(14.645386%, 65.246582%, 87.098694%)" offset="0.65625"/><stop stop-opacity="1" stop-color="rgb(14.456177%, 64.855957%, 86.782837%)" offset="0.660156"/><stop stop-opacity="1" stop-color="rgb(14.266968%, 64.466858%, 86.46698%)" offset="0.664062"/><stop stop-opacity="1" stop-color="rgb(13.983154%, 64.183044%, 86.277771%)" offset="0.667969"/><stop stop-opacity="1" stop-color="rgb(13.699341%, 63.899231%, 86.088562%)" offset="0.671875"/><stop stop-opacity="1" stop-color="rgb(13.499451%, 63.60321%, 85.794067%)" offset="0.675781"/><stop stop-opacity="1" stop-color="rgb(13.299561%, 63.308716%, 85.499573%)" offset="0.679688"/><stop stop-opacity="1" stop-color="rgb(13.09967%, 62.939453%, 85.214233%)" offset="0.683594"/><stop stop-opacity="1" stop-color="rgb(12.89978%, 62.571716%, 84.93042%)" offset="0.6875"/><stop stop-opacity="1" stop-color="rgb(12.69989%, 62.361145%, 84.690857%)" offset="0.691406"/><stop stop-opacity="1" stop-color="rgb(12.5%, 62.150574%, 84.451294%)" offset="0.695312"/><stop stop-opacity="1" stop-color="rgb(12.348938%, 61.761475%, 84.262085%)" offset="0.699219"/><stop stop-opacity="1" stop-color="rgb(12.199402%, 61.372375%, 84.072876%)" offset="0.703125"/><stop stop-opacity="1" stop-color="rgb(11.895752%, 61.08551%, 83.786011%)" offset="0.707031"/><stop stop-opacity="1" stop-color="rgb(11.593628%, 60.798645%, 83.499146%)" offset="0.710937"/><stop stop-opacity="1" stop-color="rgb(11.404419%, 60.505676%, 83.206177%)" offset="0.714844"/><stop stop-opacity="1" stop-color="rgb(11.21521%, 60.214233%, 82.914734%)" offset="0.71875"/><stop stop-opacity="1" stop-color="rgb(11.024475%, 59.825134%, 82.745361%)" offset="0.722656"/><stop stop-opacity="1" stop-color="rgb(10.835266%, 59.436035%, 82.575989%)" offset="0.726562"/><stop stop-opacity="1" stop-color="rgb(10.595703%, 59.196472%, 82.287598%)" offset="0.730469"/><stop stop-opacity="1" stop-color="rgb(10.35614%, 58.956909%, 81.999207%)" offset="0.734375"/><stop stop-opacity="1" stop-color="rgb(10.166931%, 58.566284%, 81.687927%)" offset="0.738281"/><stop stop-opacity="1" stop-color="rgb(9.977722%, 58.177185%, 81.378174%)" offset="0.742188"/><stop stop-opacity="1" stop-color="rgb(9.788513%, 57.887268%, 81.187439%)" offset="0.746094"/><stop stop-opacity="1" stop-color="rgb(9.599304%, 57.598877%, 80.99823%)" offset="0.75"/><stop stop-opacity="1" stop-color="rgb(9.298706%, 57.359314%, 80.809021%)" offset="0.753906"/><stop stop-opacity="1" stop-color="rgb(8.999634%, 57.119751%, 80.619812%)" offset="0.757812"/><stop stop-opacity="1" stop-color="rgb(8.799744%, 56.730652%, 80.308533%)" offset="0.761719"/><stop stop-opacity="1" stop-color="rgb(8.599854%, 56.341553%, 79.998779%)" offset="0.765625"/><stop stop-opacity="1" stop-color="rgb(8.398438%, 56.12793%, 79.707336%)" offset="0.769531"/><stop stop-opacity="1" stop-color="rgb(8.198547%, 55.915833%, 79.415894%)" offset="0.773438"/><stop stop-opacity="1" stop-color="rgb(7.998657%, 55.499268%, 79.199219%)" offset="0.777344"/><stop stop-opacity="1" stop-color="rgb(7.798767%, 55.082703%, 78.982544%)" offset="0.78125"/><stop stop-opacity="1" stop-color="rgb(7.649231%, 54.79126%, 78.691101%)" offset="0.785156"/><stop stop-opacity="1" stop-color="rgb(7.499695%, 54.499817%, 78.399658%)" offset="0.789063"/><stop stop-opacity="1" stop-color="rgb(7.21283%, 54.212952%, 78.112793%)" offset="0.792969"/><stop stop-opacity="1" stop-color="rgb(6.925964%, 53.926086%, 77.825928%)" offset="0.796875"/><stop stop-opacity="1" stop-color="rgb(6.735229%, 53.611755%, 77.655029%)" offset="0.800781"/><stop stop-opacity="1" stop-color="rgb(6.546021%, 53.29895%, 77.484131%)" offset="0.804688"/><stop stop-opacity="1" stop-color="rgb(6.356812%, 53.033447%, 77.325439%)" offset="0.808594"/><stop stop-opacity="1" stop-color="rgb(6.167603%, 52.767944%, 77.166748%)" offset="0.8125"/><stop stop-opacity="1" stop-color="rgb(5.92804%, 52.377319%, 76.832581%)" offset="0.816406"/><stop stop-opacity="1" stop-color="rgb(5.688477%, 51.98822%, 76.499939%)" offset="0.820312"/><stop stop-opacity="1" stop-color="rgb(5.499268%, 51.799011%, 76.203918%)" offset="0.824219"/><stop stop-opacity="1" stop-color="rgb(5.310059%, 51.609802%, 75.909424%)" offset="0.828125"/><stop stop-opacity="1" stop-color="rgb(5.119324%, 51.219177%, 75.720215%)" offset="0.832031"/><stop stop-opacity="1" stop-color="rgb(4.930115%, 50.830078%, 75.531006%)" offset="0.835938"/><stop stop-opacity="1" stop-color="rgb(4.740906%, 50.514221%, 75.215149%)" offset="0.839844"/><stop stop-opacity="1" stop-color="rgb(4.551697%, 50.19989%, 74.899292%)" offset="0.84375"/><stop stop-opacity="1" stop-color="rgb(4.225159%, 49.935913%, 74.635315%)" offset="0.847656"/><stop stop-opacity="1" stop-color="rgb(3.898621%, 49.673462%, 74.372864%)" offset="0.851562"/><stop stop-opacity="1" stop-color="rgb(3.69873%, 49.234009%, 74.133301%)" offset="0.855469"/><stop stop-opacity="1" stop-color="rgb(3.49884%, 48.794556%, 73.893738%)" offset="0.859375"/><stop stop-opacity="1" stop-color="rgb(3.29895%, 48.603821%, 73.704529%)" offset="0.863281"/><stop stop-opacity="1" stop-color="rgb(3.09906%, 48.414612%, 73.51532%)" offset="0.867188"/><stop stop-opacity="1" stop-color="rgb(2.89917%, 48.045349%, 73.207092%)" offset="0.871094"/><stop stop-opacity="1" stop-color="rgb(2.69928%, 47.677612%, 72.898865%)" offset="0.875"/><stop stop-opacity="1" stop-color="rgb(2.548218%, 47.387695%, 72.645569%)" offset="0.878906"/><stop stop-opacity="1" stop-color="rgb(2.398682%, 47.099304%, 72.392273%)" offset="0.882813"/><stop stop-opacity="1" stop-color="rgb(2.137756%, 46.838379%, 72.235107%)" offset="0.886719"/><stop stop-opacity="1" stop-color="rgb(1.878357%, 46.578979%, 72.077942%)" offset="0.890625"/><stop stop-opacity="1" stop-color="rgb(1.672363%, 46.17157%, 71.737671%)" offset="0.894531"/><stop stop-opacity="1" stop-color="rgb(1.46637%, 45.765686%, 71.398926%)" offset="0.898438"/><stop stop-opacity="1" stop-color="rgb(1.243591%, 45.542908%, 71.109009%)" offset="0.902344"/><stop stop-opacity="1" stop-color="rgb(1.020813%, 45.320129%, 70.820618%)" offset="0.90625"/><stop stop-opacity="1" stop-color="rgb(0.830078%, 44.93103%, 70.631409%)" offset="0.910156"/><stop stop-opacity="1" stop-color="rgb(0.640869%, 44.541931%, 70.4422%)" offset="0.914062"/><stop stop-opacity="1" stop-color="rgb(0.587463%, 44.351196%, 70.251465%)" offset="0.921875"/><stop stop-opacity="1" stop-color="rgb(0.724792%, 43.830872%, 69.93103%)" offset="0.925781"/><stop stop-opacity="1" stop-color="rgb(0.914001%, 43.499756%, 69.799805%)" offset="0.929688"/><stop stop-opacity="1" stop-color="rgb(1.055908%, 43.299866%, 69.598389%)" offset="0.933594"/><stop stop-opacity="1" stop-color="rgb(1.199341%, 43.099976%, 69.398499%)" offset="0.9375"/><stop stop-opacity="1" stop-color="rgb(1.399231%, 42.89856%, 69.311523%)" offset="0.941406"/><stop stop-opacity="1" stop-color="rgb(1.599121%, 42.698669%, 69.226074%)" offset="0.945312"/><stop stop-opacity="1" stop-color="rgb(1.799011%, 42.549133%, 69.111633%)" offset="0.949219"/><stop stop-opacity="1" stop-color="rgb(1.998901%, 42.399597%, 68.998718%)" offset="0.953125"/><stop stop-opacity="1" stop-color="rgb(2.198792%, 42.199707%, 68.798828%)" offset="0.957031"/><stop stop-opacity="1" stop-color="rgb(2.398682%, 41.999817%, 68.598938%)" offset="0.960938"/><stop stop-opacity="1" stop-color="rgb(2.43988%, 41.743469%, 68.544006%)" offset="0.964844"/><stop stop-opacity="1" stop-color="rgb(2.481079%, 41.488647%, 68.489075%)" offset="0.96875"/><stop stop-opacity="1" stop-color="rgb(2.633667%, 41.299438%, 68.344116%)" offset="0.976563"/><stop stop-opacity="1" stop-color="rgb(2.94342%, 40.870667%, 67.999268%)" offset="0.980469"/><stop stop-opacity="1" stop-color="rgb(3.09906%, 40.631104%, 67.799377%)" offset="0.984375"/><stop stop-opacity="1" stop-color="rgb(3.29895%, 40.441895%, 67.744446%)" offset="0.988281"/><stop stop-opacity="1" stop-color="rgb(3.49884%, 40.252686%, 67.689514%)" offset="0.992188"/><stop stop-opacity="1" stop-color="rgb(3.69873%, 40.061951%, 67.530823%)" offset="0.996094"/><stop stop-opacity="1" stop-color="rgb(3.898621%, 39.872742%, 67.373657%)" offset="1"/></linearGradient><clipPath id="4a45fdf353"><path d="M 150 163.144531 L 225 163.144531 L 225 184.101562 L 150 184.101562 Z M 150 163.144531 " clip-rule="nonzero"/></clipPath><clipPath id="4a6d406e7c"><path d="M 222.859375 174.894531 C 212.925781 167.667969 200.699219 163.40625 187.472656 163.40625 C 174.25 163.40625 162.023438 167.667969 152.089844 174.894531 C 149.386719 176.863281 149.3125 180.871094 151.945312 182.929688 C 153.710938 184.3125 156.183594 184.367188 157.992188 183.046875 C 166.269531 177.023438 176.457031 173.46875 187.472656 173.46875 C 198.492188 173.46875 208.679688 177.023438 216.953125 183.046875 C 218.765625 184.367188 221.234375 184.3125 223 182.929688 C 225.632812 180.871094 225.5625 176.863281 222.859375 174.894531 Z M 222.859375 174.894531 " clip-rule="nonzero"/></clipPath><clipPath id="141cd0f8bc"><path d="M 222.859375 174.894531 C 212.925781 167.667969 200.699219 163.40625 187.472656 163.40625 C 174.25 163.40625 162.023438 167.667969 152.089844 174.894531 C 149.386719 176.863281 149.3125 180.871094 151.945312 182.929688 C 153.710938 184.3125 156.183594 184.367188 157.992188 183.046875 C 166.269531 177.023438 176.457031 173.46875 187.472656 173.46875 C 198.492188 173.46875 208.679688 177.023438 216.953125 183.046875 C 218.765625 184.367188 221.234375 184.3125 223 182.929688 C 225.632812 180.871094 225.5625 176.863281 222.859375 174.894531 " clip-rule="nonzero"/></clipPath><clipPath id="070d6bbf77"><path d="M 225.511719 160.378906 L 148.484375 163.4375 L 149.433594 187.390625 L 226.464844 184.335938 Z M 225.511719 160.378906 " clip-rule="nonzero"/></clipPath><linearGradient x1="0.377525" gradientTransform="matrix(3.25661, 82.106733, -82.082716, 3.257563, 185.56837, 130.944247)" y1="0" x2="0.665442" gradientUnits="userSpaceOnUse" y2="0" id="4bfda225da"><stop stop-opacity="1" stop-color="rgb(1.199341%, 45.498657%, 71.354675%)" offset="0"/><stop stop-opacity="1" stop-color="rgb(1.199341%, 45.481873%, 71.176147%)" offset="0.015625"/><stop stop-opacity="1" stop-color="rgb(1.179504%, 45.281982%, 70.979309%)" offset="0.03125"/><stop stop-opacity="1" stop-color="rgb(0.979614%, 45.08667%, 70.779419%)" offset="0.046875"/><stop stop-opacity="1" stop-color="rgb(0.793457%, 44.880676%, 70.593262%)" offset="0.0625"/><stop stop-opacity="1" stop-color="rgb(0.593567%, 44.493103%, 70.393372%)" offset="0.078125"/><stop stop-opacity="1" stop-color="rgb(0.401306%, 44.297791%, 70.199585%)" offset="0.09375"/><stop stop-opacity="1" stop-color="rgb(0.502014%, 44.197083%, 70.199585%)" offset="0.109375"/><stop stop-opacity="1" stop-color="rgb(0.700378%, 43.997192%, 70.198059%)" offset="0.125"/><stop stop-opacity="1" stop-color="rgb(0.799561%, 43.798828%, 70.098877%)" offset="0.140625"/><stop stop-opacity="1" stop-color="rgb(0.799561%, 43.600464%, 69.900513%)" offset="0.15625"/><stop stop-opacity="1" stop-color="rgb(0.990295%, 43.307495%, 69.607544%)" offset="0.1875"/><stop stop-opacity="1" stop-color="rgb(1.281738%, 43.107605%, 69.406128%)" offset="0.203125"/><stop stop-opacity="1" stop-color="rgb(1.480103%, 43.099976%, 69.398499%)" offset="0.21875"/><stop stop-opacity="1" stop-color="rgb(1.58844%, 42.910767%, 69.20929%)" offset="0.25"/><stop stop-opacity="1" stop-color="rgb(1.786804%, 42.56897%, 69.009399%)" offset="0.28125"/><stop stop-opacity="1" stop-color="rgb(2.166748%, 42.227173%, 68.817139%)" offset="0.3125"/><stop stop-opacity="1" stop-color="rgb(2.378845%, 41.938782%, 68.617249%)" offset="0.328125"/><stop stop-opacity="1" stop-color="rgb(2.398682%, 41.740417%, 68.598938%)" offset="0.34375"/><stop stop-opacity="1" stop-color="rgb(2.456665%, 41.542053%, 68.519592%)" offset="0.359375"/><stop stop-opacity="1" stop-color="rgb(2.590942%, 41.342163%, 68.34259%)" offset="0.375"/><stop stop-opacity="1" stop-color="rgb(2.758789%, 41.143799%, 68.144226%)" offset="0.390625"/><stop stop-opacity="1" stop-color="rgb(2.952576%, 40.945435%, 67.945862%)" offset="0.40625"/><stop stop-opacity="1" stop-color="rgb(3.074646%, 40.652466%, 67.822266%)" offset="0.4375"/><stop stop-opacity="1" stop-color="rgb(3.167725%, 40.361023%, 67.747498%)" offset="0.453125"/><stop stop-opacity="1" stop-color="rgb(3.335571%, 40.162659%, 67.622375%)" offset="0.46875"/><stop stop-opacity="1" stop-color="rgb(3.533936%, 39.964294%, 67.523193%)" offset="0.484375"/><stop stop-opacity="1" stop-color="rgb(3.7323%, 39.76593%, 67.498779%)" offset="0.5"/><stop stop-opacity="1" stop-color="rgb(3.930664%, 39.633179%, 67.433167%)" offset="0.515625"/><stop stop-opacity="1" stop-color="rgb(4.130554%, 39.599609%, 67.268372%)" offset="0.53125"/><stop stop-opacity="1" stop-color="rgb(4.264832%, 39.439392%, 67.134094%)" offset="0.5625"/><stop stop-opacity="1" stop-color="rgb(4.356384%, 39.183044%, 67.041016%)" offset="0.578125"/><stop stop-opacity="1" stop-color="rgb(4.512024%, 38.986206%, 66.885376%)" offset="0.59375"/><stop stop-opacity="1" stop-color="rgb(4.711914%, 38.786316%, 66.687012%)" offset="0.609375"/><stop stop-opacity="1" stop-color="rgb(4.910278%, 38.587952%, 66.488647%)" offset="0.625"/><stop stop-opacity="1" stop-color="rgb(5.053711%, 38.389587%, 66.343689%)" offset="0.640625"/><stop stop-opacity="1" stop-color="rgb(5.099487%, 38.189697%, 66.299438%)" offset="0.65625"/><stop stop-opacity="1" stop-color="rgb(5.247498%, 37.896729%, 66.151428%)" offset="0.6875"/><stop stop-opacity="1" stop-color="rgb(5.493164%, 37.615967%, 65.951538%)" offset="0.703125"/><stop stop-opacity="1" stop-color="rgb(5.690002%, 37.45575%, 65.899658%)" offset="0.71875"/><stop stop-opacity="1" stop-color="rgb(5.844116%, 37.19635%, 65.7547%)" offset="0.75"/><stop stop-opacity="1" stop-color="rgb(5.941772%, 36.911011%, 65.55481%)" offset="0.765625"/><stop stop-opacity="1" stop-color="rgb(6.085205%, 36.712646%, 65.499878%)" offset="0.78125"/><stop stop-opacity="1" stop-color="rgb(6.378174%, 36.418152%, 65.362549%)" offset="0.8125"/><stop stop-opacity="1" stop-color="rgb(6.768799%, 36.029053%, 65.029907%)" offset="0.875"/><stop stop-opacity="1" stop-color="rgb(7.063293%, 35.734558%, 64.733887%)" offset="0.890625"/><stop stop-opacity="1" stop-color="rgb(7.263184%, 35.536194%, 64.535522%)" offset="0.90625"/><stop stop-opacity="1" stop-color="rgb(7.43103%, 35.241699%, 64.367676%)" offset="0.9375"/><stop stop-opacity="1" stop-color="rgb(7.516479%, 34.94873%, 64.276123%)" offset="0.953125"/><stop stop-opacity="1" stop-color="rgb(7.608032%, 34.753418%, 64.152527%)" offset="0.96875"/><stop stop-opacity="1" stop-color="rgb(7.762146%, 34.555054%, 63.975525%)" offset="0.984375"/><stop stop-opacity="1" stop-color="rgb(7.9422%, 34.355164%, 63.899231%)" offset="1"/></linearGradient><clipPath id="f71f5f9c07"><path d="M 166.523438 183 L 208.425781 183 L 208.425781 197.199219 L 166.523438 197.199219 Z M 166.523438 183 " clip-rule="nonzero"/></clipPath><clipPath id="ba4ce4672d"><path d="M 205.402344 187.253906 C 200 184.582031 193.910156 183.082031 187.472656 183.082031 C 181.035156 183.082031 174.949219 184.582031 169.542969 187.253906 C 166.113281 188.949219 165.613281 193.636719 168.625 195.996094 C 170.191406 197.222656 172.320312 197.449219 174.105469 196.5625 C 178.132812 194.570312 182.671875 193.445312 187.472656 193.445312 C 192.273438 193.445312 196.8125 194.570312 200.84375 196.5625 C 202.625 197.449219 204.753906 197.222656 206.320312 195.996094 C 209.332031 193.636719 208.832031 188.949219 205.402344 187.253906 Z M 205.402344 187.253906 " clip-rule="nonzero"/></clipPath><clipPath id="a45a7f96dd"><path d="M 205.402344 187.253906 C 200 184.582031 193.910156 183.082031 187.472656 183.082031 C 181.035156 183.082031 174.949219 184.582031 169.542969 187.253906 C 166.113281 188.949219 165.613281 193.636719 168.625 195.996094 C 170.191406 197.222656 172.320312 197.449219 174.105469 196.5625 C 178.132812 194.570312 182.671875 193.445312 187.472656 193.445312 C 192.273438 193.445312 196.8125 194.570312 200.84375 196.5625 C 202.625 197.449219 204.753906 197.222656 206.320312 195.996094 C 209.332031 193.636719 208.832031 188.949219 205.402344 187.253906 " clip-rule="nonzero"/></clipPath><clipPath id="2638550728"><path d="M 209.265625 181.347656 L 165.042969 183.105469 L 165.683594 199.179688 L 209.902344 197.421875 Z M 209.265625 181.347656 " clip-rule="nonzero"/></clipPath><linearGradient x1="0.624799" gradientTransform="matrix(3.25661, 82.106733, -82.082716, 3.257563, 185.05496, 130.964267)" y1="0" x2="0.816717" gradientUnits="userSpaceOnUse" y2="0" id="1d7a27fed1"><stop stop-opacity="1" stop-color="rgb(7.099915%, 35.699463%, 64.698792%)" offset="0"/><stop stop-opacity="1" stop-color="rgb(7.099915%, 35.676575%, 64.698792%)" offset="0.03125"/><stop stop-opacity="1" stop-color="rgb(7.113647%, 35.461426%, 64.683533%)" offset="0.0625"/><stop stop-opacity="1" stop-color="rgb(7.321167%, 35.073853%, 64.483643%)" offset="0.125"/><stop stop-opacity="1" stop-color="rgb(7.655334%, 34.689331%, 64.291382%)" offset="0.15625"/><stop stop-opacity="1" stop-color="rgb(7.798767%, 34.498596%, 64.094543%)" offset="0.1875"/><stop stop-opacity="1" stop-color="rgb(7.99408%, 34.303284%, 63.900757%)" offset="0.21875"/><stop stop-opacity="1" stop-color="rgb(8.19397%, 34.008789%, 63.804626%)" offset="0.234375"/><stop stop-opacity="1" stop-color="rgb(8.198547%, 33.811951%, 63.612366%)" offset="0.25"/><stop stop-opacity="1" stop-color="rgb(8.389282%, 33.706665%, 63.505554%)" offset="0.28125"/><stop stop-opacity="1" stop-color="rgb(8.589172%, 33.517456%, 63.499451%)" offset="0.3125"/><stop stop-opacity="1" stop-color="rgb(8.778381%, 33.317566%, 63.320923%)" offset="0.34375"/><stop stop-opacity="1" stop-color="rgb(8.978271%, 33.122253%, 63.121033%)" offset="0.375"/><stop stop-opacity="1" stop-color="rgb(9.074402%, 32.847595%, 63.024902%)" offset="0.390625"/><stop stop-opacity="1" stop-color="rgb(9.246826%, 32.650757%, 62.850952%)" offset="0.40625"/><stop stop-opacity="1" stop-color="rgb(9.371948%, 32.525635%, 62.72583%)" offset="0.4375"/><stop stop-opacity="1" stop-color="rgb(9.558105%, 32.348633%, 62.579346%)" offset="0.5"/><stop stop-opacity="1" stop-color="rgb(9.757996%, 32.041931%, 62.42981%)" offset="0.53125"/><stop stop-opacity="1" stop-color="rgb(9.947205%, 31.692505%, 62.399292%)" offset="0.5625"/><stop stop-opacity="1" stop-color="rgb(10.147095%, 31.44989%, 62.254333%)" offset="0.59375"/><stop stop-opacity="1" stop-color="rgb(10.340881%, 31.256104%, 62.054443%)" offset="0.625"/><stop stop-opacity="1" stop-color="rgb(10.540771%, 31.056213%, 61.859131%)" offset="0.65625"/><stop stop-opacity="1" stop-color="rgb(10.731506%, 30.867004%, 61.659241%)" offset="0.6875"/><stop stop-opacity="1" stop-color="rgb(10.931396%, 30.53894%, 61.599731%)" offset="0.71875"/><stop stop-opacity="1" stop-color="rgb(11.123657%, 30.270386%, 61.473083%)" offset="0.75"/><stop stop-opacity="1" stop-color="rgb(11.325073%, 30.075073%, 61.273193%)" offset="0.78125"/><stop stop-opacity="1" stop-color="rgb(11.399841%, 29.875183%, 61.199951%)" offset="0.8125"/><stop stop-opacity="1" stop-color="rgb(11.51123%, 29.6875%, 61.088562%)" offset="0.84375"/><stop stop-opacity="1" stop-color="rgb(11.711121%, 29.476929%, 60.887146%)" offset="0.859375"/><stop stop-opacity="1" stop-color="rgb(11.799622%, 29.28009%, 60.798645%)" offset="0.875"/><stop stop-opacity="1" stop-color="rgb(11.904907%, 29.090881%, 60.691833%)" offset="0.90625"/><stop stop-opacity="1" stop-color="rgb(12.104797%, 28.898621%, 60.491943%)" offset="0.9375"/><stop stop-opacity="1" stop-color="rgb(12.348938%, 28.605652%, 60.307312%)" offset="1"/></linearGradient><clipPath id="69fcbb1353"><path d="M 178.746094 199.382812 L 196.203125 199.382812 L 196.203125 216.847656 L 178.746094 216.847656 Z M 178.746094 199.382812 " clip-rule="nonzero"/></clipPath><clipPath id="a6ec8927c9"><path d="M 187.472656 199.492188 C 182.707031 199.492188 178.839844 203.355469 178.839844 208.125 C 178.839844 212.894531 182.707031 216.761719 187.472656 216.761719 C 192.242188 216.761719 196.105469 212.894531 196.105469 208.125 C 196.105469 203.355469 192.242188 199.492188 187.472656 199.492188 Z M 187.472656 199.492188 " clip-rule="nonzero"/></clipPath><clipPath id="6c7ed49f7e"><path d="M 187.472656 199.492188 C 182.707031 199.492188 178.839844 203.355469 178.839844 208.125 C 178.839844 212.894531 182.707031 216.761719 187.472656 216.761719 C 192.242188 216.761719 196.105469 212.894531 196.105469 208.125 C 196.105469 203.355469 192.242188 199.492188 187.472656 199.492188 " clip-rule="nonzero"/></clipPath><clipPath id="871adf29fb"><path d="M 196.078125 198.808594 L 178.15625 199.519531 L 178.867188 217.445312 L 196.789062 216.734375 Z M 196.078125 198.808594 " clip-rule="nonzero"/></clipPath><linearGradient x1="0.830312" gradientTransform="matrix(3.25661, 82.106733, -82.082716, 3.257563, 184.41373, 130.989837)" y1="0" x2="1.048625" gradientUnits="userSpaceOnUse" y2="0" id="58c4541cd4"><stop stop-opacity="1" stop-color="rgb(12.918091%, 27.784729%, 59.599304%)" offset="0"/><stop stop-opacity="1" stop-color="rgb(13.113403%, 27.636719%, 59.594727%)" offset="0.0625"/><stop stop-opacity="1" stop-color="rgb(13.409424%, 27.389526%, 59.489441%)" offset="0.078125"/><stop stop-opacity="1" stop-color="rgb(13.604736%, 27.18811%, 59.294128%)" offset="0.09375"/><stop stop-opacity="1" stop-color="rgb(13.705444%, 26.893616%, 59.199524%)" offset="0.125"/><stop stop-opacity="1" stop-color="rgb(13.905334%, 26.6922%, 59.191895%)" offset="0.15625"/><stop stop-opacity="1" stop-color="rgb(14.100647%, 26.489258%, 58.992004%)" offset="0.1875"/><stop stop-opacity="1" stop-color="rgb(14.204407%, 26.194763%, 58.799744%)" offset="0.203125"/><stop stop-opacity="1" stop-color="rgb(14.401245%, 25.996399%, 58.796692%)" offset="0.21875"/><stop stop-opacity="1" stop-color="rgb(14.498901%, 25.898743%, 58.692932%)" offset="0.234375"/><stop stop-opacity="1" stop-color="rgb(14.503479%, 25.894165%, 58.496094%)" offset="0.25"/><stop stop-opacity="1" stop-color="rgb(14.607239%, 25.790405%, 58.399963%)" offset="0.265625"/><stop stop-opacity="1" stop-color="rgb(14.802551%, 25.588989%, 58.39386%)" offset="0.28125"/><stop stop-opacity="1" stop-color="rgb(14.898682%, 25.294495%, 58.19397%)" offset="0.3125"/><stop stop-opacity="1" stop-color="rgb(14.99939%, 25.099182%, 57.998657%)" offset="0.328125"/><stop stop-opacity="1" stop-color="rgb(15.19928%, 25.097656%, 57.998657%)" offset="0.34375"/><stop stop-opacity="1" stop-color="rgb(15.299988%, 24.996948%, 57.998657%)" offset="0.359375"/><stop stop-opacity="1" stop-color="rgb(15.301514%, 24.797058%, 57.997131%)" offset="0.375"/><stop stop-opacity="1" stop-color="rgb(15.402222%, 24.595642%, 57.894897%)" offset="0.390625"/><stop stop-opacity="1" stop-color="rgb(15.600586%, 24.397278%, 57.696533%)" offset="0.40625"/><stop stop-opacity="1" stop-color="rgb(15.699768%, 24.299622%, 57.598877%)" offset="0.4375"/><stop stop-opacity="1" stop-color="rgb(15.797424%, 24.201965%, 57.525635%)" offset="0.453125"/><stop stop-opacity="1" stop-color="rgb(15.994263%, 24.003601%, 57.377625%)" offset="0.46875"/><stop stop-opacity="1" stop-color="rgb(16.096497%, 23.802185%, 57.301331%)" offset="0.484375"/><stop stop-opacity="1" stop-color="rgb(16.099548%, 23.600769%, 57.299805%)" offset="0.5"/><stop stop-opacity="1" stop-color="rgb(16.19873%, 23.500061%, 57.299805%)" offset="0.515625"/><stop stop-opacity="1" stop-color="rgb(16.398621%, 23.498535%, 57.299805%)" offset="0.53125"/><stop stop-opacity="1" stop-color="rgb(16.499329%, 23.303223%, 57.104492%)" offset="0.5625"/><stop stop-opacity="1" stop-color="rgb(16.593933%, 23.008728%, 56.903076%)" offset="0.578125"/><stop stop-opacity="1" stop-color="rgb(16.789246%, 22.808838%, 56.898499%)" offset="0.59375"/><stop stop-opacity="1" stop-color="rgb(16.894531%, 22.703552%, 56.802368%)" offset="0.609375"/><stop stop-opacity="1" stop-color="rgb(16.899109%, 22.698975%, 56.607056%)" offset="0.625"/><stop stop-opacity="1" stop-color="rgb(16.995239%, 22.625732%, 56.50177%)" offset="0.640625"/><stop stop-opacity="1" stop-color="rgb(17.193604%, 22.477722%, 56.498718%)" offset="0.65625"/><stop stop-opacity="1" stop-color="rgb(17.295837%, 22.209167%, 56.306458%)" offset="0.6875"/><stop stop-opacity="1" stop-color="rgb(17.443848%, 22.006226%, 56.106567%)" offset="0.71875"/><stop stop-opacity="1" stop-color="rgb(17.593384%, 21.80481%, 56.098938%)" offset="0.75"/><stop stop-opacity="1" stop-color="rgb(17.698669%, 21.505737%, 55.999756%)" offset="0.875"/><stop stop-opacity="1" stop-color="rgb(17.897034%, 21.30127%, 55.801392%)" offset="1"/></linearGradient></defs><g clip-path="url(#b9057b7121)"><g clip-path="url(#0b119a9cb0)"><g clip-path="url(#3966155b03)"><g clip-path="url(#d419be7823)"><path fill="url(#1978774727)" d="M 240.554688 53.789062 L 129.730469 58.1875 L 134.390625 175.660156 L 245.214844 171.261719 Z M 240.554688 53.789062 " fill-rule="nonzero"/></g></g></g></g><g clip-path="url(#4a45fdf353)"><g clip-path="url(#4a6d406e7c)"><g clip-path="url(#141cd0f8bc)"><g clip-path="url(#070d6bbf77)"><path fill="url(#4bfda225da)" d="M 224.890625 160.429688 L 149.117188 163.4375 L 150.054688 187.078125 L 225.832031 184.070312 Z M 224.890625 160.429688 " fill-rule="nonzero"/></g></g></g></g><g clip-path="url(#f71f5f9c07)"><g clip-path="url(#ba4ce4672d)"><g clip-path="url(#a45a7f96dd)"><g clip-path="url(#2638550728)"><path fill="url(#1d7a27fed1)" d="M 208.359375 181.421875 L 165.964844 183.101562 L 166.589844 198.859375 L 208.984375 197.179688 Z M 208.359375 181.421875 " fill-rule="nonzero"/></g></g></g></g><g clip-path="url(#69fcbb1353)"><g clip-path="url(#a6ec8927c9)"><g clip-path="url(#6c7ed49f7e)"><g clip-path="url(#871adf29fb)"><path fill="url(#58c4541cd4)" d="M 196.078125 198.808594 L 178.15625 199.519531 L 178.867188 217.445312 L 196.789062 216.734375 Z M 196.078125 198.808594 " fill-rule="nonzero"/></g></g></g></g><g fill="#272a76" fill-opacity="1"><g transform="translate(135.964163, 246.706856)"><g><path d="M 14.46875 -22.015625 C 12.375 -22.015625 10.75 -21.226562 9.59375 -19.65625 C 8.445312 -18.082031 7.875 -15.882812 7.875 -13.0625 C 7.875 -7.207031 10.070312 -4.28125 14.46875 -4.28125 C 16.3125 -4.28125 18.546875 -4.738281 21.171875 -5.65625 L 21.171875 -0.984375 C 19.015625 -0.0859375 16.609375 0.359375 13.953125 0.359375 C 10.128906 0.359375 7.203125 -0.796875 5.171875 -3.109375 C 3.148438 -5.429688 2.140625 -8.765625 2.140625 -13.109375 C 2.140625 -15.835938 2.632812 -18.226562 3.625 -20.28125 C 4.625 -22.34375 6.054688 -23.921875 7.921875 -25.015625 C 9.785156 -26.109375 11.96875 -26.65625 14.46875 -26.65625 C 17.019531 -26.65625 19.582031 -26.039062 22.15625 -24.8125 L 20.359375 -20.28125 C 19.378906 -20.75 18.390625 -21.15625 17.390625 -21.5 C 16.398438 -21.84375 15.425781 -22.015625 14.46875 -22.015625 Z M 14.46875 -22.015625 "/></g></g></g><g fill="#272a76" fill-opacity="1"><g transform="translate(161.996617, 246.706856)"><g><path d="M 26.625 0 L 19.53125 0 L 8.109375 -19.875 L 7.9375 -19.875 C 8.164062 -16.363281 8.28125 -13.859375 8.28125 -12.359375 L 8.28125 0 L 3.3125 0 L 3.3125 -26.28125 L 10.328125 -26.28125 L 21.75 -6.59375 L 21.875 -6.59375 C 21.695312 -10.007812 21.609375 -12.425781 21.609375 -13.84375 L 21.609375 -26.28125 L 26.625 -26.28125 Z M 26.625 0 "/></g></g></g><g fill="#272a76" fill-opacity="1"><g transform="translate(194.499458, 246.706856)"><g><path d="M 18.4375 0 L 3.3125 0 L 3.3125 -26.28125 L 18.4375 -26.28125 L 18.4375 -21.71875 L 8.875 -21.71875 L 8.875 -15.9375 L 17.78125 -15.9375 L 17.78125 -11.375 L 8.875 -11.375 L 8.875 -4.609375 L 18.4375 -4.609375 Z M 18.4375 0 "/></g></g></g><g fill="#272a76" fill-opacity="1"><g transform="translate(217.692132, 246.706856)"><g><path d="M 13.4375 0 L 7.875 0 L 7.875 -21.640625 L 0.734375 -21.640625 L 0.734375 -26.28125 L 20.578125 -26.28125 L 20.578125 -21.640625 L 13.4375 -21.640625 Z M 13.4375 0 "/></g></g></g><g fill="#272a76" fill-opacity="1"><g transform="translate(146.439409, 267.428637)"><g><path d="M 4.609375 -2.515625 C 4.609375 -1.703125 4.382812 -1.078125 3.9375 -0.640625 C 3.5 -0.210938 2.867188 0 2.046875 0 L 0.671875 0 L 0.671875 -4.9375 L 2.1875 -4.9375 C 2.957031 -4.9375 3.550781 -4.722656 3.96875 -4.296875 C 4.394531 -3.867188 4.609375 -3.273438 4.609375 -2.515625 Z M 4 -2.484375 C 4 -3.128906 3.835938 -3.613281 3.515625 -3.9375 C 3.191406 -4.269531 2.710938 -4.4375 2.078125 -4.4375 L 1.25 -4.4375 L 1.25 -0.5 L 1.953125 -0.5 C 2.628906 -0.5 3.140625 -0.664062 3.484375 -1 C 3.828125 -1.332031 4 -1.828125 4 -2.484375 Z M 4 -2.484375 "/></g></g></g><g fill="#272a76" fill-opacity="1"><g transform="translate(155.641681, 267.428637)"><g><path d="M 3.421875 0 L 0.671875 0 L 0.671875 -4.9375 L 3.421875 -4.9375 L 3.421875 -4.421875 L 1.25 -4.421875 L 1.25 -2.828125 L 3.296875 -2.828125 L 3.296875 -2.328125 L 1.25 -2.328125 L 1.25 -0.515625 L 3.421875 -0.515625 Z M 3.421875 0 "/></g></g></g><g fill="#272a76" fill-opacity="1"><g transform="translate(163.650689, 267.428637)"><g><path d="M 3.796875 -3.5 C 3.796875 -3 3.625 -2.613281 3.28125 -2.34375 C 2.945312 -2.070312 2.460938 -1.9375 1.828125 -1.9375 L 1.25 -1.9375 L 1.25 0 L 0.671875 0 L 0.671875 -4.9375 L 1.953125 -4.9375 C 3.179688 -4.9375 3.796875 -4.457031 3.796875 -3.5 Z M 1.25 -2.4375 L 1.765625 -2.4375 C 2.273438 -2.4375 2.640625 -2.515625 2.859375 -2.671875 C 3.085938 -2.835938 3.203125 -3.101562 3.203125 -3.46875 C 3.203125 -3.789062 3.09375 -4.03125 2.875 -4.1875 C 2.664062 -4.351562 2.335938 -4.4375 1.890625 -4.4375 L 1.25 -4.4375 Z M 1.25 -2.4375 "/></g></g></g><g fill="#272a76" fill-opacity="1"><g transform="translate(171.976551, 267.428637)"><g><path d="M 3.78125 0 L 3.15625 -1.5625 L 1.1875 -1.5625 L 0.578125 0 L 0 0 L 1.953125 -4.953125 L 2.4375 -4.953125 L 4.375 0 Z M 2.984375 -2.078125 L 2.40625 -3.609375 C 2.332031 -3.804688 2.257812 -4.046875 2.1875 -4.328125 C 2.132812 -4.109375 2.0625 -3.867188 1.96875 -3.609375 L 1.390625 -2.078125 Z M 2.984375 -2.078125 "/></g></g></g><g fill="#272a76" fill-opacity="1"><g transform="translate(180.514776, 267.428637)"><g><path d="M 1.25 -2.046875 L 1.25 0 L 0.671875 0 L 0.671875 -4.9375 L 2.03125 -4.9375 C 2.632812 -4.9375 3.078125 -4.816406 3.359375 -4.578125 C 3.648438 -4.347656 3.796875 -4 3.796875 -3.53125 C 3.796875 -2.882812 3.46875 -2.445312 2.8125 -2.21875 L 4.15625 0 L 3.46875 0 L 2.28125 -2.046875 Z M 1.25 -2.546875 L 2.03125 -2.546875 C 2.4375 -2.546875 2.734375 -2.625 2.921875 -2.78125 C 3.109375 -2.945312 3.203125 -3.1875 3.203125 -3.5 C 3.203125 -3.832031 3.109375 -4.066406 2.921875 -4.203125 C 2.734375 -4.347656 2.425781 -4.421875 2 -4.421875 L 1.25 -4.421875 Z M 1.25 -2.546875 "/></g></g></g><g fill="#272a76" fill-opacity="1"><g transform="translate(188.951874, 267.428637)"><g><path d="M 2.1875 0 L 1.625 0 L 1.625 -4.421875 L 0.0625 -4.421875 L 0.0625 -4.9375 L 3.75 -4.9375 L 3.75 -4.421875 L 2.1875 -4.421875 Z M 2.1875 0 "/></g></g></g><g fill="#272a76" fill-opacity="1"><g transform="translate(196.940657, 267.428637)"><g><path d="M 2.859375 0 L 1.1875 -4.375 L 1.15625 -4.375 C 1.1875 -4.019531 1.203125 -3.609375 1.203125 -3.140625 L 1.203125 0 L 0.671875 0 L 0.671875 -4.9375 L 1.546875 -4.9375 L 3.109375 -0.859375 L 3.125 -0.859375 L 4.703125 -4.9375 L 5.5625 -4.9375 L 5.5625 0 L 4.984375 0 L 4.984375 -3.171875 C 4.984375 -3.535156 5 -3.929688 5.03125 -4.359375 L 5 -4.359375 L 3.328125 0 Z M 2.859375 0 "/></g></g></g><g fill="#272a76" fill-opacity="1"><g transform="translate(207.342936, 267.428637)"><g><path d="M 3.421875 0 L 0.671875 0 L 0.671875 -4.9375 L 3.421875 -4.9375 L 3.421875 -4.421875 L 1.25 -4.421875 L 1.25 -2.828125 L 3.296875 -2.828125 L 3.296875 -2.328125 L 1.25 -2.328125 L 1.25 -0.515625 L 3.421875 -0.515625 Z M 3.421875 0 "/></g></g></g><g fill="#272a76" fill-opacity="1"><g transform="translate(215.351944, 267.428637)"><g><path d="M 4.53125 0 L 3.875 0 L 1.1875 -4.140625 L 1.15625 -4.140625 C 1.1875 -3.648438 1.203125 -3.203125 1.203125 -2.796875 L 1.203125 0 L 0.671875 0 L 0.671875 -4.9375 L 1.328125 -4.9375 L 4.015625 -0.8125 L 4.046875 -0.8125 C 4.035156 -0.875 4.019531 -1.066406 4 -1.390625 C 3.988281 -1.722656 3.988281 -1.957031 4 -2.09375 L 4 -4.9375 L 4.53125 -4.9375 Z M 4.53125 0 "/></g></g></g><g fill="#272a76" fill-opacity="1"><g transform="translate(224.726124, 267.428637)"><g><path d="M 2.1875 0 L 1.625 0 L 1.625 -4.421875 L 0.0625 -4.421875 L 0.0625 -4.9375 L 3.75 -4.9375 L 3.75 -4.421875 L 2.1875 -4.421875 Z M 2.1875 0 "/></g></g></g></svg>